<svg fill="none" height="46" viewBox="0 0 46 46" width="46" xmlns="http://www.w3.org/2000/svg" xmlns:xlink="http://www.w3.org/1999/xlink"><filter id="a" color-interpolation-filters="sRGB" filterUnits="userSpaceOnUse" height="16.8799" width="21.7733" x="24.2266" y="6.2002"><feFlood flood-opacity="0" result="BackgroundImageFix"/><feBlend in="SourceGraphic" in2="BackgroundImageFix" mode="normal" result="shape"/><feColorMatrix in="SourceAlpha" result="hardAlpha" type="matrix" values="0 0 0 0 0 0 0 0 0 0 0 0 0 0 0 0 0 0 127 0"/><feOffset dy="4.39983"/><feGaussianBlur stdDeviation="1.99992"/><feComposite in2="hardAlpha" k2="-1" k3="1" operator="arithmetic"/><feColorMatrix type="matrix" values="0 0 0 0 1 0 0 0 0 1 0 0 0 0 1 0 0 0 1 0"/><feBlend in2="shape" mode="normal" result="effect1_innerShadow_1_151"/></filter><filter id="b" color-interpolation-filters="sRGB" filterUnits="userSpaceOnUse" height="50" width="50" x="-2" y="-3"><feFlood flood-opacity="0" result="BackgroundImageFix"/><feBlend in="SourceGraphic" in2="BackgroundImageFix" mode="normal" result="shape"/><feGaussianBlur result="effect1_foregroundBlur_1_151" stdDeviation="4"/></filter><filter id="c" color-interpolation-filters="sRGB" filterUnits="userSpaceOnUse" height="33.5263" width="31.53" x="5.37183" y="4.14014"><feFlood flood-opacity="0" result="BackgroundImageFix"/><feBlend in="SourceGraphic" in2="BackgroundImageFix" mode="normal" result="shape"/><feColorMatrix in="SourceAlpha" result="hardAlpha" type="matrix" values="0 0 0 0 0 0 0 0 0 0 0 0 0 0 0 0 0 0 127 0"/><feOffset dy="1.99992"/><feGaussianBlur stdDeviation="3.59986"/><feComposite in2="hardAlpha" k2="-1" k3="1" operator="arithmetic"/><feColorMatrix type="matrix" values="0 0 0 0 1 0 0 0 0 1 0 0 0 0 1 0 0 0 0.81 0"/><feBlend in2="shape" mode="normal" result="effect1_innerShadow_1_151"/></filter><filter id="d" color-interpolation-filters="sRGB" filterUnits="userSpaceOnUse" height="28.88" width="37.7733" x="-7.99994" y="20.8936"><feFlood flood-opacity="0" result="BackgroundImageFix"/><feGaussianBlur in="BackgroundImageFix" stdDeviation="4"/><feComposite in2="SourceAlpha" operator="in" result="effect1_backgroundBlur_1_151"/><feBlend in="SourceGraphic" in2="effect1_backgroundBlur_1_151" mode="normal" result="shape"/><feColorMatrix in="SourceAlpha" result="hardAlpha" type="matrix" values="0 0 0 0 0 0 0 0 0 0 0 0 0 0 0 0 0 0 127 0"/><feOffset dy="4.39983"/><feGaussianBlur stdDeviation="1.99992"/><feComposite in2="hardAlpha" k2="-1" k3="1" operator="arithmetic"/><feColorMatrix type="matrix" values="0 0 0 0 1 0 0 0 0 1 0 0 0 0 1 0 0 0 1 0"/><feBlend in2="shape" mode="normal" result="effect2_innerShadow_1_151"/></filter><linearGradient id="e"><stop offset="0" stop-color="#fff"/><stop offset="1" stop-color="#fff" stop-opacity=".58"/></linearGradient><linearGradient id="f" gradientUnits="userSpaceOnUse" x1="25.6115" x2="47.5215" xlink:href="#e" y1="17.9301" y2="1.48769"/><linearGradient id="g" gradientUnits="userSpaceOnUse" x1="18.7421" x2="31.7111" y1="28.4833" y2="5.73514"><stop offset="0" stop-color="#f90"/><stop offset="1" stop-color="#ffee94"/></linearGradient><linearGradient id="h" gradientUnits="userSpaceOnUse" x1="1.38495" x2="23.2949" xlink:href="#e" y1="40.6235" y2="24.181"/><clipPath id="i"><path d="m0 0h46v45.9999h-46z"/></clipPath><g clip-path="url(#i)"><g filter="url(#a)"><path d="m43.4861 12.765c.0556-.3146.0846-.6383.0846-.9687 0-3.09064-2.5378-5.5961-5.6683-5.5961-2.3272 0-4.3269 1.38468-5.1999 3.36509-.7072-.60281-1.6248-.96676-2.6277-.96676-2.236 0-4.0487 1.80947-4.0487 4.04167 0 .1243.0056.2473.0166.3687-1.0755.5201-1.8161 1.6114-1.8161 2.8735 0 1.766 1.4502 3.1977 3.239 3.1977h15.2953c1.7889 0 3.239-1.4317 3.239-3.1977 0-1.52-1.0741-2.7923-2.5138-3.1174z" fill="url(#f)"/></g><g filter="url(#b)" opacity=".3"><rect fill="#edd34a" height="34" rx="17" width="34" x="6" y="5"/></g><g filter="url(#c)"><path d="m36.9018 19.9033c0 8.7058-7.0582 15.7633-15.765 15.7633-8.7067 0-15.76497-7.0575-15.76497-15.7633 0-8.7057 7.05827-15.76316 15.76497-15.76316 8.7068 0 15.765 7.05746 15.765 15.76316z" fill="url(#g)"/></g><g filter="url(#d)"><path d="m19.2595 35.4584c.0556-.3147.0846-.6384.0846-.9687 0-3.0907-2.5377-5.5961-5.6682-5.5961-2.3273 0-4.32697 1.3846-5.19992 3.365-.7072-.6028-1.62487-.9667-2.6277-.9667-2.23607 0-4.04876 1.8095-4.04876 4.0416 0 .1243.00562.2473.01662.3687-1.075505.5201-1.81606752 1.6114-1.81606752 2.8735 0 1.7661 1.45015752 3.1978 3.23900752 3.1978h15.29532c1.7888 0 3.239-1.4317 3.239-3.1978 0-1.5199-1.0742-2.7922-2.5139-3.1173z" fill="url(#h)"/></g></g></svg>