<svg fill="none" height="46" viewBox="0 0 46 46" width="46" xmlns="http://www.w3.org/2000/svg" xmlns:xlink="http://www.w3.org/1999/xlink"><filter id="a" color-interpolation-filters="sRGB" filterUnits="userSpaceOnUse" height="39.0232" width="59.9533" x="-6.69588" y="10.5034"><feFlood flood-opacity="0" result="BackgroundImageFix"/><feBlend in="SourceGraphic" in2="BackgroundImageFix" mode="normal" result="shape"/><feGaussianBlur result="effect1_foregroundBlur_1_166" stdDeviation="8.89332"/></filter><filter id="b" color-interpolation-filters="sRGB" filterUnits="userSpaceOnUse" height="43.6917" width="61" x="-7.13873" y="-5.23999"><feFlood flood-opacity="0" result="BackgroundImageFix"/><feGaussianBlur in="BackgroundImageFix" stdDeviation="4"/><feComposite in2="SourceAlpha" operator="in" result="effect1_backgroundBlur_1_166"/><feBlend in="SourceGraphic" in2="effect1_backgroundBlur_1_166" mode="normal" result="shape"/><feColorMatrix in="SourceAlpha" result="hardAlpha" type="matrix" values="0 0 0 0 0 0 0 0 0 0 0 0 0 0 0 0 0 0 127 0"/><feOffset dy="9.22278"/><feGaussianBlur stdDeviation="4.19217"/><feComposite in2="hardAlpha" k2="-1" k3="1" operator="arithmetic"/><feColorMatrix type="matrix" values="0 0 0 0 1 0 0 0 0 1 0 0 0 0 1 0 0 0 1 0"/><feBlend in2="shape" mode="normal" result="effect2_innerShadow_1_166"/></filter><filter id="c" color-interpolation-filters="sRGB" filterUnits="userSpaceOnUse" height="8.09615" width="4.53967" x="20.8683" y="36.6212"><feFlood flood-opacity="0" result="BackgroundImageFix"/><feBlend in="SourceGraphic" in2="BackgroundImageFix" mode="normal" result="shape"/><feColorMatrix in="SourceAlpha" result="hardAlpha" type="matrix" values="0 0 0 0 0 0 0 0 0 0 0 0 0 0 0 0 0 0 127 0"/><feOffset dy="4.06629"/><feGaussianBlur stdDeviation=".677715"/><feComposite in2="hardAlpha" k2="-1" k3="1" operator="arithmetic"/><feColorMatrix type="matrix" values="0 0 0 0 1 0 0 0 0 1 0 0 0 0 1 0 0 0 0.21 0"/><feBlend in2="shape" mode="normal" result="effect1_innerShadow_1_166"/></filter><filter id="d" color-interpolation-filters="sRGB" filterUnits="userSpaceOnUse" height="8.09615" width="4.53967" x="11.8611" y="33.3195"><feFlood flood-opacity="0" result="BackgroundImageFix"/><feBlend in="SourceGraphic" in2="BackgroundImageFix" mode="normal" result="shape"/><feColorMatrix in="SourceAlpha" result="hardAlpha" type="matrix" values="0 0 0 0 0 0 0 0 0 0 0 0 0 0 0 0 0 0 127 0"/><feOffset dy="4.06629"/><feGaussianBlur stdDeviation=".677715"/><feComposite in2="hardAlpha" k2="-1" k3="1" operator="arithmetic"/><feColorMatrix type="matrix" values="0 0 0 0 1 0 0 0 0 1 0 0 0 0 1 0 0 0 0.28 0"/><feBlend in2="shape" mode="normal" result="effect1_innerShadow_1_166"/></filter><filter id="e" color-interpolation-filters="sRGB" filterUnits="userSpaceOnUse" height="8.09615" width="4.53967" x="29.8101" y="33.3195"><feFlood flood-opacity="0" result="BackgroundImageFix"/><feBlend in="SourceGraphic" in2="BackgroundImageFix" mode="normal" result="shape"/><feColorMatrix in="SourceAlpha" result="hardAlpha" type="matrix" values="0 0 0 0 0 0 0 0 0 0 0 0 0 0 0 0 0 0 127 0"/><feOffset dy="4.06629"/><feGaussianBlur stdDeviation=".677715"/><feComposite in2="hardAlpha" k2="-1" k3="1" operator="arithmetic"/><feColorMatrix type="matrix" values="0 0 0 0 1 0 0 0 0 1 0 0 0 0 1 0 0 0 0.21 0"/><feBlend in2="shape" mode="normal" result="effect1_innerShadow_1_166"/></filter><linearGradient id="f" gradientUnits="userSpaceOnUse" x1=".861259" x2="51.6921" y1="30.1027" y2="3.68579"><stop offset="0" stop-color="#e2ffff"/><stop offset="1" stop-color="#fff"/></linearGradient><clipPath id="g"><path d="m0 0h46v45.9999h-46z"/></clipPath><clipPath id="h"><path d="m.28064 0h46v45.9999h-46z"/></clipPath><g clip-path="url(#g)"><g clip-path="url(#h)"><g filter="url(#a)"><rect fill="#00bcff" height="3.44999" rx="1.725" width="24.38" x="11.0908" y="28.29"/></g><g filter="url(#b)"><path d="m40.6657 16.6784c.115-.6671.1749-1.3534.1749-2.0538 0-6.55263-5.2449-11.86459-11.7149-11.86459-4.8098 0-8.9427 2.93574-10.7468 7.1345-1.4616-1.27804-3.3583-2.04968-5.4309-2.04968-4.62135 0-8.36773 3.83637-8.36773 8.56887 0 .2635.01162.5243.03436.7817-2.22281 1.1027-3.753363 3.4165-3.753363 6.0922 0 3.7444 2.997103 6.7798 6.694213 6.7798h31.61162c3.6971 0 6.6942-3.0354 6.6942-6.7798 0-3.2225-2.22-5.9199-5.1956-6.6092z" fill="url(#f)"/></g><g filter="url(#c)"><path d="m23.1381 36.6212c-1.7128 2.2469-4.1109 6.7407 0 6.7407s1.7129-4.4938 0-6.7407z" fill="#00bcff"/></g><g filter="url(#d)"><path d="m14.1309 33.3195c-1.7129 2.2469-4.1109 6.7407 0 6.7407s1.7129-4.4938 0-6.7407z" fill="#00bcff"/></g><g filter="url(#e)"><path d="m32.0799 33.3195c-1.7129 2.2469-4.1109 6.7407 0 6.7407s1.7129-4.4938 0-6.7407z" fill="#00bcff"/></g></g></g></svg>