<?xml version="1.0" encoding="iso-8859-1"?>
<!-- Generator: Adobe Illustrator 24.0.2, SVG Export Plug-In . SVG Version: 6.00 Build 0)  -->
<svg version="1.1" id="Layer_1" xmlns="http://www.w3.org/2000/svg" xmlns:xlink="http://www.w3.org/1999/xlink" x="0px" y="0px"
	 viewBox="0 0 64 64" style="enable-background:new 0 0 64 64;" xml:space="preserve">
<linearGradient id="SVGID_1_" gradientUnits="userSpaceOnUse" x1="21.1705" y1="17.395" x2="21.1705" y2="32.3538">
	<stop  offset="0" style="stop-color:#6DC7FF"/>
	<stop  offset="1" style="stop-color:#E6ABFF"/>
</linearGradient>
<path style="fill:url(#SVGID_1_);" d="M22.482,30.164c-0.033-0.301-0.054-0.605-0.054-0.914c0-3.73,2.493-6.878,5.912-7.899
	c-1.302-2.358-3.811-3.956-6.695-3.956c-3.612,0-6.638,2.504-7.439,5.871c-0.064,0.268-0.113,0.541-0.148,0.819
	C14.02,24.398,14,24.717,14,25.041c0,3.447,2.281,6.359,5.416,7.313C20.2,31.359,21.255,30.584,22.482,30.164z"/>
<g>
	<linearGradient id="SVGID_2_" gradientUnits="userSpaceOnUse" x1="32" y1="9" x2="32" y2="55">
		<stop  offset="0" style="stop-color:#1A6DFF"/>
		<stop  offset="1" style="stop-color:#C822FF"/>
	</linearGradient>
	<path style="fill:url(#SVGID_2_);" d="M50,9H14c-2.757,0-5,2.243-5,5v36c0,2.757,2.243,5,5,5h36c2.757,0,5-2.243,5-5V14
		C55,11.243,52.757,9,50,9z M53,50c0,1.654-1.346,3-3,3H14c-1.654,0-3-1.346-3-3V14c0-1.654,1.346-3,3-3h36c1.654,0,3,1.346,3,3V50z
		"/>
	<linearGradient id="SVGID_3_" gradientUnits="userSpaceOnUse" x1="33.5" y1="20" x2="33.5" y2="44">
		<stop  offset="0" style="stop-color:#1A6DFF"/>
		<stop  offset="1" style="stop-color:#C822FF"/>
	</linearGradient>
	<path style="fill:url(#SVGID_3_);" d="M41.25,26.6c-0.448,0-0.951,0.015-1.493,0.096C38.645,22.813,34.94,20,30.732,20
		c-5.13,0-9.304,4.149-9.304,9.25c0,0.086,0.001,0.172,0.004,0.258C18.752,30.741,17,33.421,17,36.4c0,4.19,3.429,7.6,7.643,7.6
		H41.25c4.825,0,8.75-3.903,8.75-8.7S46.075,26.6,41.25,26.6z M41.25,42H24.643C21.531,42,19,39.488,19,36.4
		c0-2.386,1.529-4.511,3.806-5.29l0.759-0.259l-0.088-0.797c-0.029-0.265-0.048-0.532-0.048-0.804c0-3.998,3.276-7.25,7.304-7.25
		c3.602,0,6.731,2.6,7.28,6.048l0.182,1.142l1.104-0.345c0.558-0.174,1.123-0.245,1.952-0.245c3.722,0,6.75,3.005,6.75,6.7
		S44.972,42,41.25,42z"/>
</g>
</svg>