<svg width="24" height="24" viewBox="0 0 24 24" fill="none" xmlns="http://www.w3.org/2000/svg">
<path d="M21.5344 20.4656L17.475 16.4156C18.9077 14.7099 19.6266 12.517 19.4817 10.2942C19.3369 8.07131 18.3394 5.9902 16.6975 4.48488C15.0555 2.97956 12.8958 2.16624 10.6688 2.21456C8.44175 2.26288 6.31934 3.1691 4.74422 4.74422C3.1691 6.31934 2.26288 8.44175 2.21456 10.6688C2.16624 12.8958 2.97956 15.0555 4.48488 16.6975C5.9902 18.3394 8.07131 19.3369 10.2942 19.4817C12.517 19.6266 14.7099 18.9077 16.4156 17.475L20.4656 21.5344C20.609 21.673 20.8006 21.7505 21 21.7505C21.1994 21.7505 21.391 21.673 21.5344 21.5344C21.6752 21.3922 21.7542 21.2002 21.7542 21C21.7542 20.7999 21.6752 20.6078 21.5344 20.4656ZM3.75002 10.875C3.75002 9.46583 4.1679 8.08829 4.9508 6.91659C5.73371 5.74489 6.84648 4.83166 8.1484 4.29238C9.45033 3.75311 10.8829 3.61201 12.265 3.88693C13.6472 4.16185 14.9167 4.84044 15.9132 5.83689C16.9096 6.83334 17.5882 8.10289 17.8631 9.485C18.138 10.8671 17.9969 12.2997 17.4577 13.6016C16.9184 14.9036 16.0052 16.0163 14.8335 16.7992C13.6618 17.5822 12.2842 18 10.875 18C8.98612 17.9975 7.17529 17.2461 5.83963 15.9104C4.50397 14.5748 3.7525 12.7639 3.75002 10.875Z" fill="white"/>
</svg>
